HIERARCHY
ROOT Hips
{
	OFFSET 0.000000 0.000000 0.000000
	CHANNELS 6 Xposition Yposition Zposition Zrotation Yrotation Xrotation 
	JOINT LHipJoint
	{
		OFFSET 0.000000 0.000000 0.000000
		CHANNELS 3 Zrotation Yrotation Xrotation
		JOINT LeftUpLeg
		{
			OFFSET 1.363060 -1.794630 0.839290
			CHANNELS 3 Zrotation Yrotation Xrotation
			JOINT LeftLeg
			{
				OFFSET 2.448110 -6.726130 0.000000
				CHANNELS 3 Zrotation Yrotation Xrotation
				JOINT LeftFoot
				{
					OFFSET 2.562200 -7.039590 0.000000
					CHANNELS 3 Zrotation Yrotation Xrotation
					JOINT LeftToeBase
					{
						OFFSET 0.157640 -0.433110 2.322550
						CHANNELS 3 Zrotation Yrotation Xrotation
						End Site
						{
							OFFSET 0.000000 0.000000 0.000000
						}
					}
				}
			}
		}
	}
	JOINT RHipJoint
	{
		OFFSET 0.000000 0.000000 0.000000
		CHANNELS 3 Zrotation Yrotation Xrotation
		JOINT RightUpLeg
		{
			OFFSET -1.305520 -1.794630 0.839290
			CHANNELS 3 Zrotation Yrotation Xrotation
			JOINT RightLeg
			{
				OFFSET -2.542530 -6.985550 0.000000
				CHANNELS 3 Zrotation Yrotation Xrotation
				JOINT RightFoot
				{
					OFFSET -2.568260 -7.056230 0.000000
					CHANNELS 3 Zrotation Yrotation Xrotation
					JOINT RightToeBase
					{
						OFFSET -0.164730 -0.452590 2.363150
						CHANNELS 3 Zrotation Yrotation Xrotation
						End Site
						{
							OFFSET 0.000000 0.000000 0.000000
						}
					}
				}
			}
		}
	}
	JOINT LowerBack
	{
		OFFSET 0.000000 0.000000 0.000000
		CHANNELS 3 Zrotation Yrotation Xrotation
		JOINT Spine
		{
			OFFSET 0.028270 2.035590 -0.193380
			CHANNELS 3 Zrotation Yrotation Xrotation
			JOINT Spine1
			{
				OFFSET 0.056720 2.048850 -0.042750
				CHANNELS 3 Zrotation Yrotation Xrotation
				JOINT Neck
				{
					OFFSET 0.000000 0.000000 0.000000
					CHANNELS 3 Zrotation Yrotation Xrotation
					JOINT Neck1
					{
						OFFSET -0.054170 1.746240 0.172020
						CHANNELS 3 Zrotation Yrotation Xrotation
						JOINT Head
						{
							OFFSET 0.104070 1.761360 -0.123970
							CHANNELS 3 Zrotation Yrotation Xrotation
							End Site
							{
								OFFSET 0.000000 0.000000 0.000000
							}
						}
					}
				}
				JOINT LeftShoulder
				{
					OFFSET 0.000000 0.000000 0.000000
					CHANNELS 3 Zrotation Yrotation Xrotation
					JOINT LeftArm
					{
						OFFSET 3.362410 1.200890 -0.311210
						CHANNELS 3 Zrotation Yrotation Xrotation
						JOINT LeftForeArm
						{
							OFFSET 4.983000 -0.000000 -0.000000
							CHANNELS 3 Zrotation Yrotation Xrotation
							JOINT LeftHand
							{
								OFFSET 3.483560 -0.000000 -0.000000
								CHANNELS 3 Zrotation Yrotation Xrotation
								JOINT LeftFingerBase
								{
									OFFSET 0.000000 0.000000 0.000000
									CHANNELS 3 Zrotation Yrotation Xrotation
									JOINT LeftHandIndex1
									{
										OFFSET 0.715260 -0.000000 -0.000000
										CHANNELS 3 Zrotation Yrotation Xrotation
										End Site
										{
											OFFSET 0.000000 0.000000 0.000000
										}
									}
								}
								JOINT LThumb
								{
									OFFSET 0.000000 0.000000 0.000000
									CHANNELS 3 Zrotation Yrotation Xrotation
									End Site
									{
										OFFSET 0.000000 0.000000 0.000000
									}
								}
							}
						}
					}
				}
				JOINT RightShoulder
				{
					OFFSET 0.000000 0.000000 0.000000
					CHANNELS 3 Zrotation Yrotation Xrotation
					JOINT RightArm
					{
						OFFSET -3.136600 1.374050 -0.404650
						CHANNELS 3 Zrotation Yrotation Xrotation
						JOINT RightForeArm
						{
							OFFSET -5.241900 -0.000000 -0.000000
							CHANNELS 3 Zrotation Yrotation Xrotation
							JOINT RightHand
							{
								OFFSET -3.444170 -0.000000 -0.000000
								CHANNELS 3 Zrotation Yrotation Xrotation
								JOINT RightFingerBase
								{
									OFFSET 0.000000 0.000000 0.000000
									CHANNELS 3 Zrotation Yrotation Xrotation
									JOINT RightHandIndex1
									{
										OFFSET -0.622530 -0.000000 -0.000000
										CHANNELS 3 Zrotation Yrotation Xrotation
										End Site
										{
											OFFSET 0.000000 0.000000 0.000000
										}
									}
								}
								JOINT RThumb
								{
									OFFSET 0.000000 0.000000 0.000000
									CHANNELS 3 Zrotation Yrotation Xrotation
									End Site
									{
										OFFSET 0.000000 0.000000 0.000000
									}
								}
							}
						}
					}
				}
			}
		}
	}
}
MOTION
Frames: 10
Frame Time: 0.008333
4.632533 17.378822 0.142799 -169.021235 -70.983813 -169.156470 -11.028326 -0.540823 -3.868400 -4.384518 23.497354 -21.031688 -2.204760 -0.825945 -1.431387 2.484824 17.624314 3.493978 3.802500 0.000000 -38.283600 8.731316 -0.125773 2.421470 6.041962 10.316013 -20.852445 3.030076 1.457027 -4.106285 0.579045 1.219320 9.410571 -0.421400 0.000000 -56.537300 1.081727 -0.873583 3.198301 -0.886712 -0.865907 -2.079704 -8.786165 -0.518452 0.528199 10.114821 -11.936290 -3.706845 -3.168028 -0.270319 0.876129 0.000000 0.000000 0.000000 6.199567 3.911544 0.558257 -51.929900 -11.885415 40.842727 -178.564450 -64.428504 179.985593 2.063815 2.107064 0.035310 -0.135803 0.395389 -0.000000 0.000000 0.000000 0.000000 0.000000 0.000000 0.000000 7.710002 -8.802346 -0.221640 78.266641 12.817454 44.229045 179.146618 72.424191 179.945386 -8.131074 8.725318 -0.693485 0.273710 -0.740873 -0.000000 0.000000 0.000000 0.000000 0.000000 0.000000 0.000000 
4.629085 17.379257 0.147254 -169.324967 -70.526064 -169.012238 -11.036593 -0.508106 -3.870937 -4.396192 23.657417 -20.937713 -2.202636 -0.811940 -1.125369 2.528141 17.876608 3.276608 3.791200 -0.000001 -38.071500 8.728198 -0.147253 2.502518 5.942311 10.484601 -20.757818 3.035569 1.451640 -4.152286 0.608811 1.478733 9.534498 -0.330500 0.000001 -56.615900 1.305285 -0.834821 3.109791 -0.891978 -0.848389 -2.026040 -8.964558 -0.484419 0.783565 10.057207 -11.990387 -3.721078 -3.137194 -0.268017 0.873016 0.000000 0.000000 0.000000 6.454684 4.115599 0.751722 -49.546458 -14.129040 41.950787 -178.528531 -64.215737 179.988495 1.530379 2.832940 0.037940 -0.126164 0.357864 -0.000000 0.000000 0.000000 0.000000 0.000000 0.000000 0.000000 7.744404 -8.973618 -0.243666 78.000451 13.150856 44.577886 179.151743 72.404868 179.945542 -8.109926 8.675036 -0.687907 0.273394 -0.739222 -0.000000 0.000000 0.000000 0.000000 0.000000 0.000000 0.000000 
4.625068 17.379707 0.154089 -169.610836 -70.090272 -168.897123 -11.048421 -0.470400 -3.868054 -4.418853 23.829519 -20.841025 -2.203559 -0.799600 -0.840659 2.565745 18.096360 3.071417 3.774200 0.000000 -37.886300 8.723907 -0.172591 2.588948 5.836864 10.645255 -20.660578 3.039919 1.446184 -4.191835 0.637052 1.719105 9.656317 -0.246300 0.000000 -56.700500 1.529174 -0.797601 3.005421 -0.897766 -0.833846 -1.971520 -9.132592 -0.454743 1.044335 10.034885 -12.052344 -3.735002 -3.096786 -0.265123 0.870696 0.000000 0.000000 0.000000 6.801790 4.311271 0.945419 -47.091924 -16.539077 42.886687 -178.521196 -64.075000 179.991595 0.963649 3.401645 0.030747 -0.111866 0.325191 -0.000000 0.000000 0.000000 0.000000 0.000000 0.000000 0.000000 7.795813 -9.165569 -0.262582 77.675441 13.502157 44.905800 179.159870 72.370451 179.945659 -8.088809 8.621013 -0.682038 0.272548 -0.737006 -0.000000 0.000000 0.000000 0.000000 0.000000 0.000000 0.000000 
4.620769 17.380211 0.163286 -169.877994 -69.679254 -168.812873 -11.063443 -0.428505 -3.859967 -4.450521 24.012382 -20.743432 -2.207252 -0.788892 -0.577417 2.597634 18.283651 2.878757 3.752000 -0.000001 -37.731800 8.718629 -0.201540 2.679397 5.728689 10.794219 -20.559989 3.043641 1.440874 -4.228387 0.664035 1.942698 9.778955 -0.167800 0.000000 -56.791900 1.748144 -0.762113 2.886220 -0.903765 -0.822229 -1.919422 -9.283946 -0.430606 1.296665 10.048106 -12.122912 -3.738806 -3.049172 -0.261959 0.872061 0.000000 0.000000 0.000000 7.255938 4.453585 1.126486 -44.563103 -19.034969 43.616591 -178.553386 -63.982679 179.994600 0.449903 3.703352 0.017758 -0.095045 0.302726 -0.000000 0.000000 0.000000 0.000000 0.000000 0.000000 0.000000 7.866192 -9.378030 -0.271636 77.282876 13.870193 45.211459 179.169392 72.319497 179.945751 -8.069285 8.564047 -0.675974 0.271409 -0.734328 -0.000000 0.000000 0.000000 0.000000 0.000000 0.000000 0.000000 
4.616029 17.380764 0.174856 -170.119737 -69.293374 -168.760595 -11.081518 -0.382824 -3.847028 -4.489866 24.207034 -20.648543 -2.213870 -0.779627 -0.333615 2.623604 18.436760 2.698873 3.724700 -0.000000 -37.610900 8.712522 -0.233960 2.772881 5.620833 10.928132 -20.457083 3.047525 1.436190 -4.265201 0.690109 2.152898 9.905328 -0.093801 -0.000000 -56.890700 1.958185 -0.729534 2.753221 -0.909294 -0.814459 -1.873423 -9.413503 -0.414188 1.526498 10.095949 -12.203635 -3.722774 -2.997218 -0.258880 0.879949 0.000000 0.000000 0.000000 7.826869 4.492027 1.281576 -41.951611 -21.509124 44.123469 -178.633895 -63.907043 179.997208 0.071725 3.682770 0.005692 -0.077946 0.293564 0.000000 0.000000 0.000000 0.000000 0.000000 0.000000 0.000000 7.957867 -9.610871 -0.263656 76.815231 14.256390 45.497647 179.177742 72.250137 179.945841 -8.053740 8.504599 -0.670112 0.270390 -0.731335 -0.000000 0.000000 0.000000 0.000000 0.000000 0.000000 0.000000 
4.611087 17.381407 0.188798 -170.337345 -68.930964 -168.738761 -11.101973 -0.333896 -3.828984 -4.535308 24.407495 -20.556637 -2.222325 -0.771805 -0.111481 2.644869 18.563039 2.532620 3.694800 -0.000001 -37.524100 8.706080 -0.268663 2.867189 5.515787 11.042735 -20.352891 3.052268 1.432338 -4.304949 0.716120 2.354853 10.038967 -0.022599 0.000000 -56.997800 2.155904 -0.702480 2.608722 -0.913602 -0.812797 -1.836506 -9.518134 -0.408725 1.722527 10.176086 -12.294751 -3.679710 -2.943680 -0.256199 0.896471 0.000000 0.000000 0.000000 8.515326 4.385086 1.400256 -39.241453 -23.852361 44.411329 -178.766830 -63.811020 179.999121 -0.121096 3.346160 -0.000543 -0.062010 0.297962 0.000000 0.000000 0.000000 0.000000 0.000000 0.000000 0.000000 8.072908 -9.861884 -0.233351 76.268443 14.665961 45.769724 179.182275 72.161757 179.945953 -8.044628 8.442925 -0.664647 0.269943 -0.728177 -0.000000 0.000000 0.000000 0.000000 0.000000 0.000000 0.000000 
4.605682 17.382220 0.205023 -170.529035 -68.588645 -168.741903 -11.124450 -0.281676 -3.804884 -4.586382 24.606611 -20.467291 -2.231426 -0.765796 0.083907 2.663056 18.672768 2.382248 3.665799 0.000000 -37.467400 8.699861 -0.304729 2.960644 5.415239 11.133902 -20.250587 3.058660 1.429737 -4.350139 0.742631 2.554720 10.183612 0.048100 0.000001 -57.113700 2.338961 -0.684148 2.453994 -0.915895 -0.820091 -1.810968 -9.596508 -0.417716 1.878289 10.286336 -12.397994 -3.606790 -2.890913 -0.254130 0.922441 0.000000 0.000000 0.000000 9.314112 4.101319 1.476482 -36.424213 -25.956410 44.507708 -178.950726 -63.661267 -179.999848 -0.133204 2.747107 -0.000959 -0.047096 0.313709 0.000000 0.000000 0.000000 0.000000 0.000000 0.000000 0.000000 8.215284 -10.130011 -0.177241 75.639791 15.106348 46.035505 179.180170 72.055473 179.946123 -8.044251 8.378730 -0.659674 0.270566 -0.724954 -0.000000 0.000000 0.000000 0.000000 0.000000 0.000000 0.000000 
4.600107 17.383163 0.223552 -170.696556 -68.259204 -168.768524 -11.148191 -0.226601 -3.777491 -4.643913 24.813576 -20.386670 -2.242430 -0.760433 0.260652 2.677557 18.760053 2.243333 3.635000 0.000001 -37.443600 8.694084 -0.340529 3.051779 5.320981 11.201755 -20.151422 3.067380 1.428674 -4.401673 0.770567 2.756726 10.341351 0.119701 0.000000 -57.240500 2.506694 -0.679150 2.293861 -0.915680 -0.840545 -1.796264 -9.650203 -0.445341 1.995738 10.425058 -12.510251 -3.507196 -2.839226 -0.252644 0.956859 0.000000 0.000000 0.000000 10.204799 3.646056 1.512684 -33.473266 -27.766730 44.458989 -179.179750 -63.436430 -179.999745 -0.016794 1.965577 0.000823 -0.031788 0.336977 0.000000 0.000000 0.000000 0.000000 0.000000 0.000000 0.000000 8.387479 -10.410401 -0.096764 74.931252 15.593412 46.304823 179.169856 71.934334 179.946369 -8.054858 8.313076 -0.655695 0.272610 -0.721711 0.000000 0.000000 0.000000 0.000000 0.000000 0.000000 0.000000 
4.593991 17.384300 0.244313 -170.840318 -67.935924 -168.810445 -11.172800 -0.168287 -3.746040 -4.709454 25.021394 -20.312462 -2.254154 -0.756332 0.410357 2.690241 18.837173 2.118775 3.606400 0.000000 -37.445900 8.689438 -0.374963 3.139277 5.232603 11.244264 -20.059505 3.078952 1.429390 -4.461004 0.800527 2.967335 10.515934 0.194600 0.000000 -57.378500 2.657239 -0.691273 2.129612 -0.912696 -0.877534 -1.791340 -9.680599 -0.494661 2.082099 10.591614 -12.631551 -3.389418 -2.788443 -0.251599 0.997202 0.000000 0.000000 0.000000 11.168429 3.035279 1.516841 -30.396014 -29.239910 44.328745 -179.442575 -63.132817 179.999785 0.112932 1.079816 0.001170 -0.012570 0.363516 0.000000 0.000000 0.000000 0.000000 0.000000 0.000000 0.000000 8.594599 -10.701169 0.004869 74.144098 16.141593 46.586404 179.150196 71.802747 179.946724 -8.077188 8.245826 -0.652613 0.276340 -0.718389 0.000000 0.000000 0.000000 0.000000 0.000000 0.000000 0.000000 
4.587399 17.385654 0.267241 -170.965266 -67.610099 -168.860987 -11.197415 -0.106923 -3.712815 -4.785606 25.235443 -20.246586 -2.267291 -0.753179 0.532858 2.701181 18.904181 2.007236 3.579700 -0.000000 -37.473800 8.686522 -0.406559 3.222240 5.148992 11.263314 -19.978208 3.093527 1.431892 -4.528503 0.833322 3.190499 10.709464 0.274201 -0.000000 -57.530400 2.786798 -0.724376 1.964723 -0.907035 -0.934281 -1.792843 -9.687983 -0.568242 2.151414 10.788340 -12.760528 -3.268041 -2.736316 -0.250608 1.039163 0.000000 0.000000 0.000000 12.190767 2.314745 1.504400 -27.212501 -30.382573 44.185817 -179.722794 -62.780866 179.999503 0.089063 0.158623 -0.000068 0.015763 0.389023 0.000000 0.000000 0.000000 0.000000 0.000000 0.000000 0.000000 8.841305 -11.000406 0.120365 73.280520 16.770652 46.887047 179.121408 71.661965 179.947206 -8.110885 8.176543 -0.650329 0.281811 -0.714823 -0.000000 0.000000 0.000000 0.000000 0.000000 0.000000 0.000000 
